<?xml version="1.0" standalone="no"?>
<!DOCTYPE svg PUBLIC "-//W3C//DTD SVG 20010904//EN"
 "http://www.w3.org/TR/2001/REC-SVG-20010904/DTD/svg10.dtd">
<svg version="1.0" xmlns="http://www.w3.org/2000/svg"
 width="512.000000pt" height="512.000000pt" viewBox="0 0 512.000000 512.000000"
 preserveAspectRatio="xMidYMid meet">

<g transform="translate(0.000000,512.000000) scale(0.100000,-0.100000)"
fill="#000000" stroke="none">
<path d="M994 4940 c-12 -4 -31 -21 -43 -36 -20 -25 -21 -38 -21 -215 l0 -189
-340 0 c-361 0 -375 -2 -407 -49 -16 -23 -18 -57 -21 -276 -2 -224 -1 -254 15
-285 25 -49 72 -70 156 -70 l67 0 0 -1762 c0 -1136 4 -1776 10 -1799 6 -19 22
-46 36 -60 25 -23 32 -24 191 -27 166 -3 208 3 234 34 6 7 46 111 89 231 l78
218 101 3 101 3 0 -183 c0 -200 7 -242 46 -279 25 -23 32 -24 194 -27 183 -4
213 3 239 50 7 14 45 116 86 229 l73 204 682 0 682 0 73 -204 c41 -113 79
-216 86 -229 26 -47 56 -54 239 -50 162 3 169 4 194 27 39 37 46 79 46 279 l0
183 101 -3 101 -3 77 -217 c43 -119 83 -224 90 -231 26 -32 67 -38 234 -35
159 3 166 4 191 27 14 14 30 41 36 60 6 23 10 663 10 1799 l0 1762 68 0 c83 0
130 21 155 70 16 31 17 61 15 285 -3 219 -5 253 -21 276 -32 47 -46 49 -407
49 l-340 0 0 175 c0 129 -4 185 -14 210 -30 70 93 65 -1618 64 -849 0 -1553
-4 -1564 -9z m2966 -325 l0 -115 -1405 0 -1405 0 0 115 0 115 1405 0 1405 0 0
-115z m-2720 -450 l0 -115 -425 0 -425 0 0 115 0 115 425 0 425 0 0 -115z
m2410 -1095 l0 -1210 -1090 0 -1090 0 0 1210 0 1210 1090 0 1090 0 0 -1210z
m1080 1095 l0 -115 -425 0 -425 0 0 115 0 115 425 0 425 0 0 -115z m-3490
-410 l0 -65 -188 0 c-195 0 -245 -7 -268 -37 -11 -15 -13 -157 -14 -794 0
-750 1 -778 19 -800 19 -24 22 -24 235 -27 l216 -3 0 -85 0 -84 -305 0 -305 0
0 980 0 980 305 0 305 0 0 -65z m3250 -915 l0 -980 -305 0 -305 0 0 84 0 85
216 3 c213 3 216 3 235 27 18 22 19 50 19 800 -1 637 -3 779 -14 794 -23 30
-73 37 -268 37 l-188 0 0 65 0 65 305 0 305 0 0 -980z m-3250 20 l0 -670 -155
0 -155 0 0 670 0 670 155 0 155 0 0 -670z m2950 0 l0 -670 -155 0 -155 0 0
670 0 670 155 0 155 0 0 -670z m-2950 -1570 l0 -410 -305 0 -305 0 0 410 0
410 305 0 305 0 0 -410z m2410 240 l0 -170 -1090 0 -1090 0 0 170 0 170 1090
0 1090 0 0 -170z m840 -240 l0 -410 -305 0 -305 0 0 410 0 410 305 0 305 0 0
-410z m-845 -250 l0 -155 -1087 -3 -1088 -2 0 160 0 160 1088 -2 1087 -3 0
-155z m-2845 -387 c-1 -5 -22 -64 -48 -133 l-47 -125 -37 -3 -38 -3 0 135 0
136 85 0 c47 0 85 -3 85 -7z m840 0 c-1 -5 -22 -64 -48 -133 l-47 -125 -37 -3
-38 -3 0 135 0 136 85 0 c47 0 85 -3 85 -7z m2010 -128 l0 -135 -35 0 c-23 0
-37 6 -44 19 -10 17 -91 240 -91 248 0 2 38 3 85 3 l85 0 0 -135z m840 0 l0
-135 -35 0 c-23 0 -37 6 -44 19 -10 17 -91 240 -91 248 0 2 38 3 85 3 l85 0 0
-135z"/>
<path d="M1641 4104 c-21 -27 -21 -30 -21 -1023 1 -1054 -1 -1014 47 -1039 30
-17 1741 -17 1776 -1 14 6 30 22 36 36 8 17 11 310 11 1014 l0 990 -25 24 -24
25 -890 0 -890 0 -20 -26z m829 -1024 l0 -890 -345 0 -345 0 0 890 0 890 345
0 345 0 0 -890z m860 0 l0 -890 -347 2 -348 3 -3 888 -2 887 350 0 350 0 0
-890z"/>
<path d="M1964 1620 c-30 -12 -64 -58 -64 -87 0 -61 60 -113 116 -99 42 11 74
50 74 91 0 49 -15 74 -55 91 -39 16 -42 16 -71 4z"/>
<path d="M3083 1616 c-38 -17 -53 -43 -53 -89 0 -96 132 -131 175 -46 22 42
18 75 -12 108 -34 37 -68 45 -110 27z"/>
<path d="M1929 1091 c-21 -22 -29 -39 -29 -66 0 -84 105 -127 163 -67 38 40
37 93 -2 133 -41 40 -91 40 -132 0z"/>
<path d="M3059 1091 c-39 -40 -40 -93 -2 -133 58 -60 163 -17 163 67 0 27 -8
44 -29 66 -41 40 -91 40 -132 0z"/>
</g>
</svg>
