<?xml version="1.0" standalone="no"?>
<!DOCTYPE svg PUBLIC "-//W3C//DTD SVG 20010904//EN"
 "http://www.w3.org/TR/2001/REC-SVG-20010904/DTD/svg10.dtd">
<svg version="1.0" xmlns="http://www.w3.org/2000/svg"
 width="512.000000pt" height="512.000000pt" viewBox="0 0 512.000000 512.000000"
 preserveAspectRatio="xMidYMid meet">

<g transform="translate(0.000000,512.000000) scale(0.100000,-0.100000)"
fill="#000000" stroke="none">
<path d="M2505 5095 l-25 -24 0 -275 0 -274 -56 -18 c-107 -33 -216 -112 -291
-209 -94 -122 -139 -273 -131 -438 4 -83 6 -92 32 -113 27 -24 31 -24 237 -24
l209 0 0 -35 c0 -46 37 -85 80 -85 43 0 80 39 80 85 l0 35 209 0 c207 0 210 0
238 24 l28 24 -1 129 c-1 110 -4 139 -27 209 -61 186 -206 335 -386 396 l-61
21 0 274 0 274 -25 24 c-15 16 -36 25 -55 25 -19 0 -40 -9 -55 -25z"/>
<path d="M475 4311 c-11 -5 -31 -21 -45 -36 l-25 -27 0 -489 0 -489 33 -32 32
-33 410 0 410 0 32 33 33 32 0 490 0 490 -33 32 -32 33 -398 2 c-218 1 -406
-2 -417 -6z m432 -465 c13 -28 23 -36 55 -41 44 -8 48 -22 12 -55 -21 -21 -24
-30 -19 -61 8 -45 -5 -55 -45 -34 -27 14 -33 14 -60 0 -40 -21 -53 -11 -45 34
5 31 2 40 -19 61 -36 33 -32 47 12 55 32 5 42 13 55 41 9 19 21 34 27 34 6 0
18 -15 27 -34z"/>
<path d="M3835 4311 c-11 -5 -31 -21 -45 -36 l-25 -27 0 -489 0 -489 33 -32
32 -33 410 0 410 0 32 33 33 32 0 490 0 490 -33 32 -32 33 -398 2 c-218 1
-406 -2 -417 -6z m432 -465 c13 -28 23 -36 55 -41 44 -8 48 -22 12 -55 -21
-21 -24 -30 -19 -61 8 -45 -5 -55 -45 -34 -27 14 -33 14 -60 0 -40 -21 -53
-11 -45 34 5 31 2 40 -19 61 -36 33 -32 47 12 55 32 5 42 13 55 41 9 19 21 34
27 34 6 0 18 -15 27 -34z"/>
<path d="M2189 3488 c-24 -17 -49 -39 -56 -47 -34 -44 7 -121 65 -121 28 0 93
39 121 74 24 29 18 76 -13 103 -37 31 -65 29 -117 -9z"/>
<path d="M2835 3510 c-68 -27 -63 -106 9 -158 57 -41 106 -43 135 -6 39 50 21
95 -57 145 -49 31 -56 32 -87 19z"/>
<path d="M2505 3415 c-22 -21 -25 -33 -25 -95 0 -62 3 -74 25 -95 15 -16 36
-25 55 -25 19 0 40 9 55 25 22 21 25 33 25 95 0 62 -3 74 -25 95 -15 16 -36
25 -55 25 -19 0 -40 -9 -55 -25z"/>
<path d="M2775 2546 c-37 -17 -70 -52 -84 -89 -7 -17 -11 -127 -11 -283 l0
-254 -94 0 -94 0 14 38 c60 169 -81 362 -266 362 -152 0 -281 -131 -280 -284
1 -23 7 -58 14 -78 l14 -38 -331 0 c-230 0 -342 -4 -371 -12 -55 -16 -138 -99
-154 -154 -7 -23 -12 -92 -12 -153 0 -105 1 -113 25 -136 l24 -25 555 0 554 0
4 -109 c2 -92 6 -114 24 -137 34 -46 70 -67 123 -72 l51 -5 0 -97 0 -97 -51
-5 c-53 -5 -89 -26 -123 -72 -18 -24 -21 -45 -24 -168 l-4 -141 -175 -188
-175 -189 -79 0 c-71 0 -83 -3 -104 -25 -33 -32 -33 -78 0 -110 22 -23 31 -25
125 -25 68 0 110 5 129 14 15 8 103 98 195 200 l167 186 188 0 188 0 169 -187
c93 -103 180 -193 194 -200 16 -8 67 -13 138 -13 107 0 114 1 137 25 33 32 33
78 0 110 -22 23 -32 25 -117 26 l-93 0 -160 178 -160 179 -5 150 c-4 132 -8
154 -26 178 -34 46 -70 67 -123 72 l-51 5 0 97 0 97 51 5 c53 5 89 26 123 72
18 23 22 45 24 137 l4 109 554 0 555 0 24 25 c24 23 25 31 25 136 0 137 -11
177 -67 239 -70 78 -84 80 -454 80 l-318 0 -3 269 c-3 254 -4 271 -24 297 -46
62 -65 69 -202 72 -91 1 -135 -2 -157 -12z m1040 -811 c21 -20 25 -34 25 -80
l0 -55 -1280 0 -1280 0 0 55 c0 46 4 60 25 80 l24 25 1231 0 1231 0 24 -25z"/>
<path d="M185 2375 c-14 -13 -25 -35 -25 -47 0 -13 20 -68 44 -123 95 -217
187 -537 231 -809 69 -415 53 -847 -46 -1201 -16 -60 -28 -120 -24 -132 13
-54 77 -79 122 -48 42 29 118 350 138 580 3 39 8 91 11 118 l6 47 379 0 379 0
0 -355 0 -356 25 -24 c32 -33 78 -33 110 0 l25 24 0 356 c0 313 2 355 15 355
9 0 27 11 40 25 24 23 25 30 25 138 0 137 -15 188 -71 245 -71 71 -79 72 -539
72 l-407 0 -12 93 c-19 145 -68 373 -111 522 -71 241 -183 515 -219 534 -33
18 -70 12 -96 -14z"/>
<path d="M4837 2389 c-37 -21 -158 -326 -226 -567 -44 -155 -83 -344 -102
-489 l-12 -93 -407 0 c-460 0 -464 -1 -537 -72 -58 -57 -73 -106 -73 -245 0
-108 1 -115 25 -138 13 -14 31 -25 40 -25 13 0 15 -42 15 -355 l0 -356 25 -24
c32 -33 78 -33 110 0 l25 24 0 356 0 355 379 0 380 0 5 -52 c26 -268 54 -427
101 -589 26 -89 49 -119 92 -119 36 0 59 15 73 50 11 26 8 44 -19 142 -109
397 -118 857 -26 1323 48 239 140 535 224 719 37 83 39 109 6 141 -26 26 -67
32 -98 14z"/>
</g>
</svg>
