<?xml version="1.0" standalone="no"?>
<!DOCTYPE svg PUBLIC "-//W3C//DTD SVG 20010904//EN"
 "http://www.w3.org/TR/2001/REC-SVG-20010904/DTD/svg10.dtd">
<svg version="1.0" xmlns="http://www.w3.org/2000/svg"
 width="512.000000pt" height="512.000000pt" viewBox="0 0 512.000000 512.000000"
 preserveAspectRatio="xMidYMid meet">

<g transform="translate(0.000000,512.000000) scale(0.100000,-0.100000)"
fill="#000000" stroke="none">
<path d="M2438 5109 c-84 -12 -201 -54 -282 -101 -88 -51 -218 -181 -266 -266
l-35 -62 -137 0 c-147 0 -177 -7 -205 -49 -17 -24 -18 -96 -21 -1168 l-2
-1143 -371 0 -371 0 -29 -31 -29 -31 0 -958 0 -958 31 -31 31 -31 134 0 134 0
0 -82 c0 -111 13 -154 53 -178 30 -19 52 -20 310 -20 302 0 322 3 345 55 7 14
12 70 12 125 l0 100 820 0 820 0 0 -100 c0 -182 -5 -180 355 -180 308 0 325 3
351 65 9 21 14 69 14 125 l0 90 133 0 c122 0 134 2 160 23 17 13 32 38 37 62
12 52 13 1817 0 1869 -5 21 -18 48 -30 60 -20 20 -31 21 -413 26 l-392 5 -2
1140 c-2 895 -5 1145 -15 1164 -21 39 -66 51 -195 51 l-118 0 -35 62 c-48 85
-178 215 -266 266 -159 92 -345 128 -526 101z m272 -214 c154 -41 293 -155
369 -303 23 -45 54 -90 69 -100 19 -12 53 -18 134 -21 l108 -3 0 -1074 0
-1074 -845 0 -845 0 0 1074 0 1074 124 3 c152 5 164 12 220 125 69 140 212
258 362 299 67 18 236 18 304 0z m1520 -2980 l0 -205 -1670 0 -1670 0 0 205 0
205 1670 0 1670 0 0 -205z m-3112 -922 l2 -513 -115 0 -115 0 0 508 c0 280 3
512 7 516 4 3 54 5 112 4 l106 -3 3 -512z m1310 0 l2 -513 -555 0 -555 0 0
508 c0 280 3 512 7 515 3 4 252 6 552 5 l546 -3 3 -512z m1300 -1 l2 -512
-550 0 -550 0 0 508 c0 280 3 512 7 515 3 4 250 6 547 5 l541 -3 3 -513z m500
1 l2 -513 -150 0 -150 0 0 508 c0 280 3 512 7 516 4 3 70 5 147 4 l141 -3 3
-512z m-2693 -753 l0 -35 -152 -3 -153 -3 0 41 0 41 153 -3 152 -3 0 -35z
m2355 0 l0 -41 -152 3 c-152 3 -153 3 -156 26 -7 51 -3 52 158 52 l150 0 0
-40z"/>
<path d="M2443 4805 c-116 -31 -220 -107 -282 -203 -27 -43 -61 -134 -76 -204
l-5 -28 -105 0 c-102 0 -106 -1 -137 -29 l-33 -29 0 -912 0 -912 33 -29 32
-29 675 0 675 0 32 29 33 29 0 912 0 912 -33 29 c-31 27 -37 29 -122 29 -90 0
-90 0 -96 28 -18 80 -29 112 -54 163 -98 194 -331 299 -537 244z m225 -212
c45 -19 110 -79 132 -123 10 -20 26 -78 35 -129 9 -50 21 -103 27 -117 18 -39
58 -54 143 -54 l75 0 0 -770 0 -770 -535 0 -535 0 0 770 0 770 98 0 c137 0
144 7 177 164 24 119 36 148 84 199 69 75 200 102 299 60z"/>
<path d="M2310 2012 c-75 -37 -73 -145 4 -177 37 -16 310 -22 375 -9 108 22
108 176 0 198 -18 3 -102 6 -188 6 -129 0 -162 -3 -191 -18z"/>
<path d="M1830 1303 c-73 -27 -88 -117 -29 -172 22 -20 34 -21 222 -21 l199 0
29 29 c49 49 35 128 -28 160 -22 11 -363 15 -393 4z"/>
<path d="M2875 1299 c-62 -35 -74 -111 -26 -160 l29 -29 199 0 c188 0 200 1
222 21 47 44 49 109 4 151 -24 22 -31 23 -216 26 -129 1 -199 -2 -212 -9z"/>
</g>
</svg>
