<?xml version="1.0" standalone="no"?>
<!DOCTYPE svg PUBLIC "-//W3C//DTD SVG 20010904//EN"
 "http://www.w3.org/TR/2001/REC-SVG-20010904/DTD/svg10.dtd">
<svg version="1.0" xmlns="http://www.w3.org/2000/svg"
 width="474.000000pt" height="62.000000pt" viewBox="0 0 474.000000 62.000000"
 preserveAspectRatio="xMidYMid meet">

<g transform="translate(0.000000,62.000000) scale(0.100000,-0.100000)"
fill="#000000" stroke="none">
<path d="M848 543 c-29 -4 -35 -16 -40 -78 l-3 -30 -120 -3 c-153 -4 -165 -1
-165 39 0 24 -3 30 -16 25 -9 -3 -19 -6 -24 -6 -5 0 4 -30 19 -67 l28 -68 294
3 c161 2 297 6 300 10 3 4 14 27 24 52 9 25 19 50 22 56 2 6 -5 14 -17 17 -12
3 -24 14 -27 25 -3 13 -16 22 -41 26 -40 6 -189 6 -234 -1z m-28 -133 c8 -1
56 2 106 6 120 9 184 0 184 -26 0 -19 -11 -20 -290 -20 -278 0 -290 1 -290 20
0 10 8 21 18 24 13 4 129 2 272 -4z"/>
<path d="M320 462 c-57 -19 -56 -18 -37 -40 25 -28 30 -72 14 -120 -8 -24 -13
-51 -10 -62 7 -25 -49 -60 -94 -60 -21 0 -36 -6 -42 -18 -9 -17 -5 -19 31 -20
52 -2 120 28 148 66 15 20 26 27 34 21 6 -5 25 -20 43 -34 18 -14 35 -35 38
-45 5 -15 15 -20 38 -19 18 1 24 3 14 6 -9 2 -15 9 -12 14 12 18 -30 68 -77
94 -40 22 -48 31 -48 55 0 16 -3 36 -6 45 -6 14 -1 14 36 -5 23 -12 44 -19 47
-16 3 2 -10 12 -29 21 -18 10 -41 24 -51 33 -15 13 -15 17 -3 31 18 21 29 58
19 64 -4 2 -28 -2 -53 -11z"/>
<path d="M1300 463 c-8 -3 -26 -10 -39 -15 -22 -8 -23 -10 -7 -27 27 -29 20
-55 -20 -75 -20 -9 -34 -19 -31 -22 2 -3 21 3 41 12 19 10 38 15 41 13 3 -3
-4 -24 -15 -46 -10 -22 -16 -49 -13 -61 7 -27 -47 -62 -94 -62 -21 0 -36 -6
-42 -18 -8 -16 -5 -18 32 -19 53 -3 119 27 148 66 l22 30 40 -31 c21 -17 44
-42 50 -55 8 -17 18 -23 41 -22 17 1 23 3 14 6 -9 2 -15 10 -12 18 8 21 -35
72 -80 95 -39 19 -41 22 -42 69 0 28 -6 57 -13 65 -8 10 -9 16 -1 21 5 3 17
19 25 36 15 28 15 29 -7 28 -13 0 -30 -3 -38 -6z"/>
<path d="M1713 409 c-25 -7 -33 -16 -38 -42 -4 -17 -18 -65 -31 -106 -13 -40
-22 -77 -19 -81 9 -14 66 14 70 35 2 11 10 46 18 79 13 57 14 58 24 30 6 -16
16 -51 22 -79 14 -59 26 -75 56 -75 19 0 25 11 45 83 13 45 33 101 46 125 l23
42 -44 0 -43 0 -7 -49 c-9 -65 -30 -137 -37 -125 -3 5 -14 43 -23 84 -10 41
-21 78 -24 81 -3 3 -20 2 -38 -2z"/>
<path d="M2669 412 c-20 -2 -27 -8 -26 -25 1 -12 -7 -57 -18 -101 -27 -114
-18 -122 121 -101 101 15 100 38 0 36 -58 -1 -66 1 -66 18 0 31 28 45 82 43
67 -3 60 21 -8 28 -45 5 -49 7 -46 30 3 32 17 40 72 40 25 0 53 7 63 15 17 12
9 14 -65 17 -45 2 -95 2 -109 0z"/>
<path d="M3020 346 c-4 -13 -14 -42 -20 -65 -13 -49 -22 -46 -46 14 -26 68
-51 60 -84 -28 -23 -60 -21 -87 4 -87 9 0 20 16 26 41 13 49 27 47 58 -9 26
-46 48 -47 58 -3 4 14 15 52 25 85 10 32 16 62 13 67 -10 16 -24 9 -34 -15z"/>
<path d="M2274 353 c-14 -3 -24 -16 -30 -41 -8 -34 -12 -37 -44 -37 -34 0 -35
1 -32 39 7 82 -49 6 -62 -86 -9 -58 8 -65 30 -12 13 31 18 35 47 32 29 -3 32
-6 35 -39 3 -31 6 -36 23 -32 10 3 19 8 19 12 1 10 37 135 45 154 4 9 3 16 -1
16 -5 -1 -18 -4 -30 -6z"/>
<path d="M4129 345 c-15 -8 -29 -21 -33 -30 -9 -25 13 -61 47 -76 37 -16 38
-33 3 -37 -16 -2 -32 4 -43 17 -20 24 -33 27 -33 7 0 -22 49 -56 79 -56 37 0
71 26 71 54 0 17 -10 28 -36 41 -27 12 -34 22 -32 38 2 17 10 22 32 22 16 0
31 -6 34 -12 2 -7 -3 -13 -12 -13 -20 0 -21 -16 -2 -23 30 -12 49 40 23 62
-23 19 -71 22 -98 6z"/>
<path d="M4505 351 c-57 -24 -57 -81 0 -108 19 -9 35 -23 35 -30 0 -20 -44
-15 -74 8 -21 16 -26 17 -26 5 0 -21 48 -56 79 -56 35 0 71 26 71 50 0 12 -16
30 -41 45 -48 31 -50 60 -4 60 22 0 31 -5 34 -20 3 -17 1 -18 -13 -6 -9 7 -16
9 -16 3 0 -5 7 -15 15 -22 12 -10 18 -10 30 0 18 15 19 44 3 58 -19 15 -70 22
-93 13z"/>
<path d="M1937 323 c2 -16 -5 -55 -16 -88 -11 -33 -18 -61 -16 -63 2 -2 37 2
79 9 81 13 105 33 34 27 -37 -2 -43 0 -43 16 0 14 11 22 38 30 43 12 40 26 -5
26 -15 0 -28 4 -28 8 0 19 38 42 68 42 17 0 34 5 37 10 4 6 -23 10 -73 10
l-79 0 4 -27z"/>
<path d="M2364 308 c-15 -24 -38 -58 -50 -77 -13 -19 -21 -38 -18 -43 10 -16
31 -8 44 17 13 24 60 42 80 30 6 -3 17 -23 26 -43 22 -53 33 -26 31 74 l-2 79
-42 3 c-40 3 -43 1 -69 -40z m53 -45 c-12 -16 -47 -17 -47 -1 0 6 10 22 22 36
l23 24 6 -24 c3 -13 1 -29 -4 -35z"/>
<path d="M3070 345 c0 -3 11 -10 25 -15 29 -11 32 -34 10 -105 -15 -53 -14
-61 10 -52 17 7 28 30 45 99 10 39 18 49 43 58 46 16 51 1 29 -81 -11 -41 -19
-75 -17 -77 1 -2 34 2 71 9 79 13 112 32 49 28 -74 -5 -86 34 -14 45 45 7 44
26 -2 26 -19 0 -29 5 -29 15 0 19 31 35 69 35 16 0 33 5 36 10 4 7 -52 10
-159 10 -91 0 -166 -2 -166 -5z"/>
<path d="M3418 263 c-9 -48 -15 -89 -14 -90 10 -10 36 13 45 39 14 41 51 36
63 -9 11 -43 52 -73 99 -73 21 0 41 4 44 10 3 5 0 7 -8 4 -27 -10 -65 15 -90
60 l-25 45 24 16 c26 17 32 53 12 73 -7 7 -39 12 -72 12 l-61 0 -17 -87z m120
29 c-2 -11 -15 -18 -36 -20 -26 -3 -32 0 -32 17 0 11 8 24 17 30 23 12 55 -5
51 -27z"/>
<path d="M3630 318 c0 -18 -7 -58 -15 -88 -8 -30 -13 -56 -11 -57 8 -9 38 12
46 31 5 15 23 27 52 35 52 16 78 37 78 66 0 35 -20 45 -87 45 l-63 0 0 -32z
m103 -2 c8 -20 -21 -56 -44 -56 -21 0 -25 21 -9 51 12 22 45 25 53 5z"/>
<path d="M3804 268 c-10 -46 -17 -85 -16 -88 6 -14 27 -2 42 25 22 40 47 44
62 8 22 -53 58 -83 99 -83 21 0 41 4 44 10 3 5 0 7 -8 4 -27 -10 -64 15 -85
57 l-21 42 24 23 c49 46 19 84 -67 84 l-55 0 -19 -82z m114 30 c-2 -18 -11
-24 -35 -26 -18 -2 -33 1 -33 7 0 27 14 41 42 41 25 0 29 -4 26 -22z"/>
<path d="M4014 323 c-3 -16 -12 -50 -19 -77 -15 -54 -12 -69 12 -64 17 3 67
144 57 159 -12 20 -44 8 -50 -18z"/>
<path d="M4286 333 c3 -10 -4 -49 -15 -88 -11 -38 -18 -71 -17 -73 2 -1 34 2
72 8 82 13 113 33 44 28 -39 -2 -45 0 -48 18 -3 18 4 22 38 28 46 7 45 26 -1
26 -16 0 -29 4 -29 9 0 20 33 41 65 41 19 0 37 5 40 10 4 6 -23 10 -73 10 -71
0 -80 -2 -76 -17z"/>
<path d="M460 310 c0 -5 7 -10 16 -10 8 0 12 5 9 10 -3 6 -10 10 -16 10 -5 0
-9 -4 -9 -10z"/>
<path d="M1160 310 c0 -5 7 -10 15 -10 8 0 15 5 15 10 0 6 -7 10 -15 10 -8 0
-15 -4 -15 -10z"/>
<path d="M505 270 c3 -5 15 -10 26 -10 10 0 19 5 19 10 0 6 -12 10 -26 10 -14
0 -23 -4 -19 -10z"/>
<path d="M1095 270 c3 -5 15 -10 26 -10 10 0 19 5 19 10 0 6 -12 10 -26 10
-14 0 -23 -4 -19 -10z"/>
</g>
</svg>
