<?xml version="1.0" standalone="no"?>
<!DOCTYPE svg PUBLIC "-//W3C//DTD SVG 20010904//EN"
 "http://www.w3.org/TR/2001/REC-SVG-20010904/DTD/svg10.dtd">
<svg version="1.0" xmlns="http://www.w3.org/2000/svg"
 width="512.000000pt" height="512.000000pt" viewBox="0 0 512.000000 512.000000"
 preserveAspectRatio="xMidYMid meet">

<g transform="translate(0.000000,512.000000) scale(0.100000,-0.100000)"
fill="#000000" stroke="none">
<path d="M855 4870 c-11 -4 -27 -16 -36 -26 -26 -30 -317 -644 -330 -697 -30
-123 17 -264 121 -360 83 -78 147 -101 270 -101 132 1 193 25 281 113 50 50
71 81 88 126 29 77 36 148 22 216 -14 63 -303 674 -335 705 -26 27 -54 35 -81
24z m145 -505 c131 -274 138 -302 96 -389 -87 -177 -343 -180 -430 -4 -32 64
-33 116 -2 188 41 99 209 440 216 440 4 0 58 -106 120 -235z"/>
<path d="M4192 4863 c-26 -22 -326 -651 -343 -716 -30 -123 17 -264 121 -360
83 -78 147 -101 270 -101 124 1 188 25 270 101 103 95 148 227 121 354 -14 65
-314 697 -343 722 -11 9 -33 17 -48 17 -15 0 -37 -8 -48 -17z m168 -498 c131
-274 138 -302 96 -389 -87 -177 -343 -180 -430 -4 -32 64 -33 116 -2 188 41
99 209 440 216 440 4 0 58 -106 120 -235z"/>
<path d="M2025 3975 l-25 -24 0 -336 0 -335 -135 0 c-132 0 -137 -1 -161 -25
l-25 -25 3 -513 c3 -499 4 -513 26 -570 25 -68 75 -159 98 -178 8 -7 20 -21
25 -31 9 -17 -2 -18 -271 -18 l-280 0 0 775 0 776 -25 24 -24 25 -351 0 -351
0 -24 -25 -25 -24 0 -776 0 -775 -95 0 c-90 0 -98 -2 -122 -26 -25 -25 -26
-29 -19 -112 21 -270 203 -513 459 -612 40 -16 96 -32 125 -36 l52 -7 0 -419
0 -419 25 -24 24 -25 271 0 271 0 24 25 c25 24 25 27 25 200 l0 175 1040 0
1040 0 0 -175 c0 -173 0 -176 25 -200 l24 -25 271 0 271 0 24 25 25 24 0 419
0 419 52 7 c69 10 190 57 258 102 163 108 279 281 316 470 21 114 19 160 -11
189 -22 23 -32 25 -120 25 l-95 0 0 775 0 776 -25 24 -24 25 -351 0 -351 0
-24 -25 -25 -24 0 -776 0 -775 -281 0 -281 0 16 23 c58 79 97 146 117 200 23
61 23 69 27 574 l3 513 -25 25 c-24 24 -29 25 -161 25 l-135 0 0 335 0 336
-25 24 c-15 16 -36 25 -55 25 -19 0 -40 -9 -55 -25 l-25 -24 0 -336 0 -335
-160 0 -160 0 0 335 0 336 -25 24 c-15 16 -36 25 -55 25 -19 0 -40 -9 -55 -25
l-25 -24 0 -336 0 -335 -160 0 -160 0 0 335 0 336 -25 24 c-15 16 -36 25 -55
25 -19 0 -40 -9 -55 -25z m-905 -1335 l0 -720 -240 0 -240 0 0 720 0 720 240
0 240 0 0 -720z m3360 0 l0 -720 -240 0 -240 0 0 720 0 720 240 0 240 0 0
-720z m-1202 32 l-3 -448 -37 -76 c-45 -91 -103 -147 -196 -191 l-67 -32 -415
0 -415 0 -67 32 c-93 44 -151 100 -196 191 l-37 76 -3 448 -3 448 721 0 721 0
-3 -448z m1432 -932 c0 -28 -42 -140 -73 -192 -34 -59 -125 -150 -183 -184
-26 -15 -76 -39 -113 -53 l-66 -26 -1680 -3 c-1866 -3 -1753 -7 -1893 64 -77
38 -177 131 -219 201 -31 53 -73 165 -73 193 0 20 23 20 2150 20 2127 0 2150
0 2150 -20z m-630 -980 l0 -360 -160 0 -160 0 0 175 c0 173 0 176 -25 200
l-24 25 -1151 0 -1151 0 -24 -25 c-25 -24 -25 -27 -25 -200 l0 -175 -160 0
-160 0 0 360 0 360 1520 0 1520 0 0 -360z"/>
<path d="M2105 2615 c-16 -15 -25 -36 -25 -55 0 -19 9 -40 25 -55 l24 -25 431
0 431 0 24 25 c16 15 25 36 25 55 0 19 -9 40 -25 55 l-24 25 -431 0 -431 0
-24 -25z"/>
</g>
</svg>
