<?xml version="1.0" standalone="no"?>
<!DOCTYPE svg PUBLIC "-//W3C//DTD SVG 20010904//EN"
 "http://www.w3.org/TR/2001/REC-SVG-20010904/DTD/svg10.dtd">
<svg version="1.0" xmlns="http://www.w3.org/2000/svg"
 width="512.000000pt" height="512.000000pt" viewBox="0 0 512.000000 512.000000"
 preserveAspectRatio="xMidYMid meet">

<g transform="translate(0.000000,512.000000) scale(0.100000,-0.100000)"
fill="#000000" stroke="none">
<path d="M389 3086 c-19 -14 -83 -57 -142 -97 -59 -40 -116 -84 -127 -98 -83
-117 38 -275 220 -288 43 -4 69 -11 78 -21 16 -21 15 -134 -3 -252 -43 -279
-40 -392 20 -728 44 -246 57 -396 45 -501 -15 -136 -32 -182 -110 -302 -33
-51 -40 -71 -40 -111 0 -159 158 -264 297 -197 72 35 121 110 167 259 81 255
97 396 95 806 -3 351 7 451 51 551 l19 43 290 0 291 0 0 -72 c-1 -289 -42
-625 -96 -789 -23 -68 -37 -92 -81 -138 -29 -31 -58 -72 -65 -93 -25 -85 27
-200 113 -246 59 -32 131 -27 188 12 47 33 111 122 153 213 111 244 218 723
218 980 0 56 3 108 6 117 6 14 67 16 590 16 l584 0 0 -77 c1 -351 91 -759 235
-1059 76 -157 168 -234 265 -221 116 15 205 154 170 264 -8 22 -33 56 -62 83
-38 36 -53 60 -73 115 -56 164 -92 420 -97 695 l-3 195 285 0 285 0 22 -45
c51 -106 58 -177 58 -575 1 -339 3 -381 24 -499 44 -253 105 -411 189 -495 34
-34 61 -52 86 -57 132 -24 250 73 251 207 0 50 -6 65 -49 135 -120 195 -130
337 -49 768 48 258 55 478 24 701 -22 155 -27 271 -13 293 5 6 39 16 78 21 80
10 115 22 165 57 77 53 107 167 61 232 -13 17 -60 54 -105 82 -45 28 -104 69
-131 93 l-48 42 -2147 3 -2148 2 -34 -24z m4303 -169 c30 -23 80 -58 111 -77
31 -19 57 -38 57 -42 0 -4 -13 -14 -30 -23 -26 -13 -281 -15 -2275 -15 -1529
0 -2252 3 -2266 10 -37 21 -22 46 50 84 38 20 81 50 94 66 l25 30 194 3 c106
1 1046 3 2089 5 l1896 2 55 -43z m-3854 -474 c2 -158 2 -163 -28 -245 -77
-209 -90 -321 -83 -703 6 -296 0 -383 -39 -550 -26 -113 -81 -252 -116 -294
l-27 -33 -28 22 c-34 27 -34 41 4 96 85 124 119 253 119 456 0 141 -11 230
-62 503 -41 220 -43 400 -9 605 18 107 22 153 16 223 l-7 88 129 -3 128 -3 3
-162z m3282 12 l0 -155 -1560 0 -1560 0 0 155 0 155 1560 0 1560 0 0 -155z
m412 78 c-3 -53 5 -139 23 -268 36 -250 32 -349 -26 -650 -40 -207 -43 -231
-43 -400 -1 -146 3 -193 18 -250 24 -92 61 -179 98 -235 28 -41 29 -47 16 -70
-8 -15 -24 -26 -40 -28 -23 -3 -30 3 -51 45 -50 100 -98 270 -123 436 -12 79
-15 176 -12 437 3 377 -2 419 -68 610 -36 102 -37 110 -42 278 l-4 172 129 0
130 0 -5 -77z m-2716 -515 c-12 -246 -59 -487 -142 -731 -88 -257 -176 -387
-214 -316 -10 17 -6 26 24 59 90 99 160 325 195 625 6 50 11 178 11 286 0 108
3 199 7 202 3 4 33 7 66 7 l60 0 -7 -132z m1617 -125 c3 -201 9 -284 25 -373
39 -214 100 -386 170 -478 34 -44 36 -75 7 -86 -29 -11 -47 8 -94 103 -92 184
-158 392 -200 631 -19 106 -41 333 -41 423 l0 37 64 0 64 0 5 -257z"/>
<path d="M2372 2507 c-30 -32 -29 -77 3 -107 23 -22 37 -25 125 -28 146 -6
227 5 256 33 31 31 30 69 -1 100 -24 25 -27 25 -193 25 -163 0 -169 -1 -190
-23z"/>
</g>
</svg>
