<?xml version="1.0" standalone="no"?>
<!DOCTYPE svg PUBLIC "-//W3C//DTD SVG 20010904//EN"
 "http://www.w3.org/TR/2001/REC-SVG-20010904/DTD/svg10.dtd">
<svg version="1.0" xmlns="http://www.w3.org/2000/svg"
 width="512.000000pt" height="512.000000pt" viewBox="0 0 512.000000 512.000000"
 preserveAspectRatio="xMidYMid meet">

<g transform="translate(0.000000,512.000000) scale(0.100000,-0.100000)"
fill="#000000" stroke="none">
<path d="M2876 4584 c-100 -32 -186 -152 -186 -260 l0 -42 -137 -4 c-123 -3
-143 -6 -187 -28 -62 -32 -123 -100 -139 -158 -13 -42 -17 -46 -59 -59 -105
-30 -153 -163 -88 -246 l19 -24 -47 -34 c-26 -18 -92 -77 -147 -130 l-100 -97
-370 309 -370 309 -136 0 c-136 0 -159 -5 -159 -38 0 -8 49 -101 110 -207 60
-106 119 -213 131 -239 35 -80 42 -153 23 -268 -27 -172 -5 -330 65 -463 14
-27 27 -53 29 -57 2 -5 -219 -8 -490 -8 -371 0 -497 -3 -506 -12 -17 -17 -17
-834 0 -892 15 -49 78 -114 118 -123 l30 -5 0 -84 0 -84 -108 0 c-71 0 -112
-4 -120 -12 -17 -17 -17 -279 0 -296 8 -8 49 -12 120 -12 l108 0 0 -308 c0
-226 3 -311 12 -320 17 -17 359 -17 376 0 8 8 12 58 12 160 l0 148 1880 0
1880 0 0 -148 c0 -102 4 -152 12 -160 17 -17 359 -17 376 0 9 9 12 94 12 320
l0 308 108 0 c71 0 112 4 120 12 17 17 17 279 0 296 -9 9 -146 12 -555 12
l-543 0 0 80 c0 79 0 80 28 85 152 31 238 73 332 161 77 73 133 163 162 261
l22 72 45 11 c25 6 84 30 131 53 68 33 103 59 176 132 78 76 98 104 138 185
55 112 76 201 76 326 0 266 -152 514 -390 634 -111 56 -194 75 -325 75 -130
-1 -204 -16 -300 -61 l-53 -26 -84 67 -84 67 23 46 c28 55 29 84 4 138 -22 47
-66 83 -114 91 -29 4 -35 10 -45 48 -16 60 -68 123 -132 159 -53 30 -60 31
-191 34 l-136 4 -7 59 c-19 184 -194 299 -370 243z m190 -91 c54 -27 98 -100
98 -161 l1 -47 -199 -3 -199 -2 5 55 c9 108 101 191 204 183 28 -3 68 -13 90
-25z m445 -305 c19 -6 45 -20 59 -30 27 -21 70 -85 70 -105 0 -10 -142 -13
-674 -13 l-675 0 11 32 c15 42 80 105 120 117 50 14 1047 14 1089 -1z m-2112
-452 l359 -299 -59 -90 c-93 -141 -146 -264 -215 -495 -3 -10 -34 -12 -130
-10 l-126 3 -37 61 c-81 133 -106 282 -77 459 17 112 11 196 -23 286 -16 42
-103 201 -194 357 l-19 33 81 -3 81 -3 359 -299z m2366 218 c23 -9 48 -62 41
-90 -4 -13 -16 -33 -28 -44 -21 -20 -32 -20 -810 -20 l-789 0 -24 25 c-16 15
-25 36 -25 55 0 19 9 40 25 55 l24 25 785 0 c431 0 792 -3 801 -6z m59 -278
c247 -178 443 -458 531 -761 29 -100 85 -442 85 -520 -1 -230 -174 -446 -401
-500 -55 -13 -208 -15 -1069 -15 -1105 0 -1073 -1 -1192 62 l-58 31 0 421 c0
315 -3 425 -12 434 -7 7 -39 12 -75 12 -35 0 -63 3 -63 6 0 23 37 139 70 221
96 235 260 446 468 604 l65 49 795 0 794 0 62 -44z m671 -51 c183 -38 352
-169 434 -336 94 -192 94 -386 -1 -578 -71 -145 -229 -279 -375 -320 -32 -9
-33 -9 -33 23 0 19 -3 47 -6 63 -5 27 -3 30 34 41 22 7 67 30 101 53 272 181
309 562 76 794 -138 138 -343 189 -523 129 l-52 -17 -38 43 c-20 24 -37 46
-37 48 0 8 101 44 160 57 80 18 175 18 260 0z m-32 -200 c165 -43 279 -157
322 -322 50 -191 -43 -397 -219 -488 -67 -35 -70 -33 -80 59 -25 224 -115 474
-237 662 l-48 73 32 10 c80 25 151 27 230 6z m-3781 -1072 c3 -361 5 -412 20
-441 l17 -33 -224 3 -225 3 -32 33 -33 32 -3 405 -3 405 240 0 240 0 3 -407z
m956 2 l-3 -405 -33 -32 -32 -33 -370 0 -370 0 -32 33 -33 32 -3 405 -3 405
441 0 441 0 -3 -405z m249 -537 c32 -6 64 -12 71 -14 8 -2 12 -28 12 -84 l0
-80 -205 0 -205 0 0 84 0 84 30 7 c16 4 46 23 66 43 l36 37 68 -33 c38 -18 95
-38 127 -44z m-1047 -98 l0 -80 -240 0 -240 0 0 80 0 80 240 0 240 0 0 -80z
m640 0 l0 -80 -280 0 -280 0 0 80 0 80 280 0 280 0 0 -80z m2410 0 l0 -80
-920 0 -920 0 0 80 0 80 920 0 920 0 0 -80z m1110 -240 l0 -80 -2440 0 -2440
0 0 80 0 80 2440 0 2440 0 0 -80z m-240 -440 l0 -280 -120 0 -120 0 0 148 c0
102 -4 152 -12 160 -17 17 -3879 17 -3896 0 -8 -8 -12 -58 -12 -160 l0 -148
-120 0 -120 0 0 280 0 280 2200 0 2200 0 0 -280z"/>
<path d="M2732 3250 c-44 -27 -72 -76 -72 -128 0 -52 11 -75 58 -125 l36 -37
-51 -52 -52 -52 -45 42 c-110 101 -266 43 -266 -100 0 -82 66 -148 148 -148
52 0 75 11 125 58 l37 36 52 -52 52 -52 -36 -37 c-47 -50 -58 -73 -58 -125 0
-82 66 -148 148 -148 52 0 75 11 125 58 l37 36 38 -36 c49 -47 72 -58 122 -58
141 0 199 157 98 266 l-42 45 52 52 52 51 37 -36 c50 -47 73 -58 125 -58 76 0
135 52 145 128 15 109 -72 188 -183 167 -22 -4 -53 -22 -80 -47 l-45 -42 -51
52 -52 51 42 45 c101 109 43 266 -98 266 -50 0 -73 -11 -122 -58 l-38 -36 -37
36 c-21 20 -48 41 -60 47 -34 18 -104 13 -141 -9z m146 -95 l37 -34 -53 -53
-53 -53 -34 37 c-41 44 -46 87 -15 118 31 31 74 26 118 -15z m302 15 c31 -31
26 -74 -15 -118 l-34 -37 -53 53 -53 53 37 34 c44 41 87 46 118 15z m-155
-160 l50 -50 -53 -53 -52 -52 -52 52 -53 53 50 50 c27 27 52 50 55 50 3 0 28
-23 55 -50z m-160 -160 l50 -50 -53 -53 -52 -52 -52 52 -53 53 50 50 c27 27
52 50 55 50 3 0 28 -23 55 -50z m320 0 l50 -50 -53 -53 -52 -52 -52 52 -53 53
50 50 c27 27 52 50 55 50 3 0 28 -23 55 -50z m-627 -15 l37 -35 -37 -35 c-62
-57 -138 -38 -138 35 0 73 76 92 138 35z m942 15 c43 -43 11 -120 -50 -120
-21 0 -42 11 -68 35 l-37 35 37 35 c44 41 87 46 118 15z m-475 -160 l50 -50
-53 -53 -52 -52 -52 52 -53 53 50 50 c27 27 52 50 55 50 3 0 28 -23 55 -50z
m-160 -161 l50 -50 -37 -35 c-92 -84 -189 8 -107 101 17 19 34 35 38 35 4 0
29 -23 56 -51z m304 16 c82 -93 -15 -185 -107 -101 l-37 35 50 50 c27 28 52
51 56 51 4 0 21 -16 38 -35z"/>
</g>
</svg>
